<?xml version="1.0" standalone="no"?>
<!DOCTYPE svg PUBLIC "-//W3C//DTD SVG 20010904//EN"
 "http://www.w3.org/TR/2001/REC-SVG-20010904/DTD/svg10.dtd">
<svg version="1.0" xmlns="http://www.w3.org/2000/svg"
 width="784.000000pt" height="784.000000pt" viewBox="0 0 784.000000 784.000000"
 preserveAspectRatio="xMidYMid meet">
<metadata>
Created by potrace 1.14, written by Peter Selinger 2001-2017
</metadata>
<g transform="translate(0.000000,784.000000) scale(0.100000,-0.100000)"
fill="#000000" stroke="none">
<path d="M3659 7686 c-2 -2 -42 -6 -89 -10 -355 -25 -782 -126 -1142 -268
-1250 -494 -2171 -1609 -2377 -2878 -39 -243 -46 -324 -46 -585 0 -336 11
-471 60 -725 156 -820 615 -1593 1270 -2144 547 -460 1205 -764 1905 -880 290
-48 396 -55 735 -51 160 2 301 6 315 8 14 3 57 8 95 12 107 10 345 52 485 86
1315 316 2371 1269 2785 2511 84 252 144 535 169 793 14 153 18 536 6 655 -23
217 -25 231 -51 375 -164 896 -682 1728 -1429 2293 -52 40 -99 76 -105 80 -27
21 -220 145 -299 191 -392 230 -878 406 -1341 486 -27 4 -182 26 -295 40 -52
7 -644 17 -651 11z"/>
</g>
</svg>
